<svg version="1.1" viewBox="0 0 512 512" fill="none" stroke="none" stroke-linecap="square" stroke-miterlimit="10" xmlns:xlink="http://www.w3.org/1999/xlink" xmlns="http://www.w3.org/2000/svg"><clipPath id="p.0"><path d="m0 0l512.0 0l0 512.0l-512.0 0l0 -512.0z" clip-rule="nonzero"/></clipPath><g clip-path="url(#p.0)"><path fill="#000000" fill-opacity="0.0" d="m0 0l512.0 0l0 512.0l-512.0 0z" fill-rule="evenodd"/><path fill="#2c4f7c" d="m-2.6246718E-7 0l512.0 0l0 512.0l-512.0 0z" fill-rule="evenodd"/><path fill="#ffffff" d="m258.08963 136.59596c-14.787323 0 -28.158112 2.6948547 -40.11235 8.084564c-11.954239 5.3897095 -21.455444 12.921494 -28.503616 22.595337c-7.048172 9.673843 -10.57225 21.006058 -10.57225 33.996643c0 15.581802 5.2688446 28.209625 15.806549 37.883453c10.57225 9.6392975 24.91043 17.050156 43.01454 22.23256l28.503632 8.136414c8.119202 2.280243 15.685608 4.923279 22.699219 7.929077c7.0136414 3.0057983 12.662537 6.9271545 16.946716 11.764099c4.3187256 4.836914 6.4780884 11.090363 6.4780884 18.760345c0 8.4646 -2.4875793 15.840912 -7.4627686 22.128906c-4.9751587 6.2879944 -11.729675 11.194031 -20.263489 14.718048c-8.499237 3.489502 -18.104095 5.234253 -28.814545 5.234253c-9.190262 0 -17.775894 -1.3647156 -25.756912 -4.094116c-7.946457 -2.7639465 -14.510925 -6.9962463 -19.693405 -12.696899c-5.1479187 -5.7006836 -8.084656 -12.921509 -8.810211 -21.662506l-28.970032 0c0.8983002 12.679626 4.802429 23.804535 11.712387 33.374756c6.909973 9.57019 16.411179 17.032867 28.503616 22.388031c12.092453 5.3551636 26.430634 8.032745 43.014557 8.032745c17.793152 0 32.925995 -2.9712524 45.398468 -8.913757c12.472504 -5.977051 21.95642 -14.009796 28.451813 -24.098236c6.529907 -10.122986 9.794861 -21.437927 9.794861 -33.944824c0 -10.848511 -2.2284546 -20.00412 -6.6853943 -27.466797c-4.4223633 -7.462677 -10.053986 -13.577942 -16.894867 -18.345764c-6.806305 -4.802368 -13.923584 -8.602798 -21.351807 -11.401306c-7.428192 -2.7985077 -14.148132 -4.992386 -20.15982 -6.581665l-23.528442 -6.3225403c-4.2841797 -1.1401367 -9.000229 -2.625763 -14.148148 -4.4568787c-5.113373 -1.8311157 -10.019455 -4.197754 -14.718231 -7.0999146c-4.6642303 -2.9021454 -8.481995 -6.564392 -11.453278 -10.986725c-2.971283 -4.4223175 -4.4569244 -9.725647 -4.4569244 -15.910019c0 -7.359024 2.124817 -13.940689 6.3744507 -19.744995c4.2496185 -5.804306 10.1922 -10.364838 17.827713 -13.68158c7.670059 -3.316742 16.635742 -4.975113 26.897049 -4.975113c14.027222 0 25.860535 3.1612701 35.49994 9.48381c9.639404 6.3225555 15.150116 15.21904 16.532104 26.689438l27.10434 0c-0.3800354 -11.677704 -3.973236 -22.111618 -10.779541 -31.301788c-6.806305 -9.224701 -16.013855 -16.480072 -27.62259 -21.766144c-11.608734 -5.3206024 -24.875885 -7.9809113 -39.801422 -7.9809113z" fill-rule="evenodd"/></g></svg>